<svg width="64" height="32" viewBox="0 0 64 32" fill="none" xmlns="http://www.w3.org/2000/svg">
<path fill-rule="evenodd" clip-rule="evenodd" d="M48 4H8C6.93913 4 5.92172 4.42143 5.17157 5.17157C4.42143 5.92172 4 6.93913 4 8V24C4 25.0609 4.42143 26.0783 5.17157 26.8284C5.92172 27.5786 6.93913 28 8 28H48C49.0609 28 50.0783 27.5786 50.8284 26.8284C51.5786 26.0783 52 25.0609 52 24V8C52 6.93913 51.5786 5.92172 50.8284 5.17157C50.0783 4.42143 49.0609 4 48 4ZM8 0C5.87827 0 3.84344 0.842854 2.34315 2.34315C0.842855 3.84344 0 5.87827 0 8L0 24C0 26.1217 0.842855 28.1566 2.34315 29.6569C3.84344 31.1571 5.87827 32 8 32H48C50.1217 32 52.1566 31.1571 53.6569 29.6569C55.1571 28.1566 56 26.1217 56 24V8C56 5.87827 55.1571 3.84344 53.6569 2.34315C52.1566 0.842854 50.1217 0 48 0H8Z" fill="black"/>
<path d="M8 8H48V24H8V8ZM58 22C59.5913 22 61.1174 21.3679 62.2426 20.2426C63.3679 19.1174 64 17.5913 64 16C64 14.4087 63.3679 12.8826 62.2426 11.7574C61.1174 10.6321 59.5913 10 58 10V22Z" fill="black"/>
</svg>
