<svg height='40px' width='40px'  fill="#66D6FF" xmlns="http://www.w3.org/2000/svg" viewBox="0 0 64 64" x="0px" y="0px"><g><path d="M32,3A11.013,11.013,0,0,0,21,14V28a11,11,0,0,0,22,0V14A11.013,11.013,0,0,0,32,3ZM23,28V23.248a25.164,25.164,0,0,0,6.217,3.786,32.633,32.633,0,0,1-3.678,1.615l-2.4.873A8.983,8.983,0,0,1,23,28Zm18,0a9,9,0,0,1-17.31,3.45l2.533-.921a35.27,35.27,0,0,0,5.891-2.8,35.178,35.178,0,0,0,6.949-5.378L41,20.414Zm0-10.414-3.351,3.351a33.094,33.094,0,0,1-6.171,4.828A23.08,23.08,0,0,1,23,20.569V14a9,9,0,0,1,18,0Z"></path><path d="M32,7a7,7,0,1,0,7,7A7.008,7.008,0,0,0,32,7Zm0,12a5,5,0,1,1,5-5A5.006,5.006,0,0,1,32,19Z"></path><path d="M33.553,14.105a3.484,3.484,0,0,1-3.106,0,1,1,0,1,0-.894,1.79,5.5,5.5,0,0,0,4.894,0,1,1,0,1,0-.894-1.79Z"></path><path d="M29.29,12.71a1.032,1.032,0,0,0,.33.21.942.942,0,0,0,.76,0,.9.9,0,0,0,.54-.54A.838.838,0,0,0,31,12a1.052,1.052,0,0,0-.29-.71,1,1,0,0,0-1.09-.21,1.155,1.155,0,0,0-.33.21A1.033,1.033,0,0,0,29,12a1,1,0,0,0,.08.38A1.155,1.155,0,0,0,29.29,12.71Z"></path><path d="M33.62,11.08a1.032,1.032,0,0,0-.33.21,1.014,1.014,0,0,0,0,1.42,1.155,1.155,0,0,0,.33.21A1,1,0,0,0,34,13a1,1,0,0,0,.71-1.71A1,1,0,0,0,33.62,11.08Z"></path><path d="M3.62,46.364,13.425,53.8a1.052,1.052,0,0,0,.233.132l4.371,1.748V60a1,1,0,0,0,1,1h11a1,1,0,0,0,1-1V49a8.009,8.009,0,0,0-8-8h-5.5a3.5,3.5,0,0,0-3.476,3.1L8.17,39.978a3.921,3.921,0,0,0-4.55,6.386ZM4.274,42.2a1.922,1.922,0,0,1,2.749-.585l7.433,5.2a1,1,0,0,0,.573.181h.08a3.452,3.452,0,0,0,2.42,1h4.7a.292.292,0,0,1,.263.163l.642,1.284a1,1,0,1,0,1.789-.894l-.642-1.285A2.281,2.281,0,0,0,22.229,46h-4.7a1.488,1.488,0,0,1-1.174-.572c-.007-.01-.01-.021-.017-.031A1.489,1.489,0,0,1,17.529,43h5.5a6.006,6.006,0,0,1,6,6V59h-9V55a1,1,0,0,0-.628-.929l-4.875-1.949L4.805,44.754A1.932,1.932,0,0,1,4.274,42.2Z"></path><path d="M33,49V60a1,1,0,0,0,1,1H44.988a1,1,0,0,0,1-1V55.677l4.366-1.749a.94.94,0,0,0,.233-.132l9.772-7.415a3.92,3.92,0,0,0-4.525-6.4L49.96,44.1A3.5,3.5,0,0,0,46.486,41H40.993A8.005,8.005,0,0,0,33,49Zm14.984-4.5a1.484,1.484,0,0,1-.309.9c-.007.01-.01.022-.017.032A1.487,1.487,0,0,1,46.487,46h-4.7a2.278,2.278,0,0,0-2.05,1.269L39.1,48.553a1,1,0,1,0,1.789.894l.642-1.285A.291.291,0,0,1,41.791,48h4.7a3.451,3.451,0,0,0,2.418-1h.079a1,1,0,0,0,.574-.181l7.424-5.2a1.916,1.916,0,0,1,2.744.586,1.939,1.939,0,0,1-.553,2.569l-9.687,7.351-4.869,1.95a1,1,0,0,0-.629.928v4H35V49a6,6,0,0,1,5.993-6h5.493A1.5,1.5,0,0,1,47.984,44.5Z"></path><path d="M49.684,9.949a6.588,6.588,0,0,1,3.836,3.327l.585,1.171a1,1,0,0,0,1.79,0l.585-1.171a6.588,6.588,0,0,1,3.836-3.327,1,1,0,0,0,0-1.9A6.588,6.588,0,0,1,56.48,4.724L55.9,3.553a1.042,1.042,0,0,0-1.79,0L53.52,4.724a6.588,6.588,0,0,1-3.836,3.327,1,1,0,0,0,0,1.9ZM55,6.184A8.559,8.559,0,0,0,57.707,9,8.559,8.559,0,0,0,55,11.816,8.559,8.559,0,0,0,52.293,9,8.559,8.559,0,0,0,55,6.184Z"></path><path d="M46.684,21.551a1,1,0,0,0,0,1.9A4.307,4.307,0,0,1,49.2,25.627l.41.82a1,1,0,0,0,1.79,0l.41-.82a4.307,4.307,0,0,1,2.511-2.178,1,1,0,0,0,0-1.9,4.307,4.307,0,0,1-2.511-2.178l-.41-.82a1.042,1.042,0,0,0-1.79,0l-.41.82A4.307,4.307,0,0,1,46.684,21.551Zm3.816-.47A6.284,6.284,0,0,0,51.871,22.5,6.284,6.284,0,0,0,50.5,23.919,6.284,6.284,0,0,0,49.129,22.5,6.284,6.284,0,0,0,50.5,21.081Z"></path></g></svg>